<?xml version="1.0" encoding="utf-8"?>
<!-- Svg Vector Icons : http://www.onlinewebfonts.com/icon -->
<!DOCTYPE svg PUBLIC "-//W3C//DTD SVG 1.1//EN" "http://www.w3.org/Graphics/SVG/1.1/DTD/svg11.dtd">
<svg version="1.1" xmlns="http://www.w3.org/2000/svg" xmlns:xlink="http://www.w3.org/1999/xlink" x="0px" y="0px" viewBox="0 0 1000 1000" enable-background="new 0 0 1000 1000" xml:space="preserve">
<metadata> Svg Vector Icons : http://www.onlinewebfonts.com/icon </metadata>
<g><g transform="translate(0.000000,358.000000) scale(0.100000,-0.100000)"><path d="M9151.5,1970.2c-24.9-19.1-111.1-166.5-189.5-325.4l-141.7-289.1H7198.9H5577.5l-26.8,44c-51.7,76.6-157,168.5-254.6,220.1l-95.7,51.7h-832.7H3535l-168.5-59.3c-193.3-70.8-344.6-157-470.9-269.9l-90-78.5l-218.2,162.7C2273.4,1658.2,2267.7,1662,2149,1662c-185.7,0-358-120.6-402-281.4c-11.5-40.2-21.1-162.7-21.1-273.7c0-300.5,15.3-323.5,369.5-570.5l281.4-197.2V142.1V-55.1l-99.5-13.4c-128.3-17.2-400.1-107.2-555.1-185.7c-302.5-151.2-689.2-469-913.1-752.3C433.8-1481.3,186.9-2046,119.9-2587.7c-26.8-214.4-26.8-484.3,1.9-578.1c32.5-107.2,168.5-252.7,298.6-315.9l109.1-53.6h731.3h729.3l51.7,47.9c126.3,116.8,139.7,258.4,78.5,756.2c-63.2,526.4,3.8,702.5,279.5,729.3c155,15.3,199.1,40.2,275.7,153.1l72.7,105.3l153.1-5.7l153.1-5.7l23-76.6c57.4-202.9,199.1-400.1,380.9-536c390.5-292.9,888.2-247,1246.2,114.9c204.8,206.7,294.8,423,294.8,708.3v124.4h101.5c212.5,0,403.9,118.7,499.6,310.1c45.9,93.8,49.8,116.8,49.8,380.9v283.3l493.9,5.8c463.3,7.7,497.7,9.6,601.1,51.7c214.4,88.1,415.4,292.9,488.1,501.5l34.5,93.8h1259.6H9789l55.5,55.5l55.5,55.5v788.7v788.7l-55.5,55.5l-55.5,55.5h-296.7C9231.9,2006.6,9191.7,2002.8,9151.5,1970.2z M9574.6,1518.4v-162.7h-191.4c-105.3,0-191.4,3.8-191.4,9.6c0,5.7,34.5,78.5,76.6,162.7l76.6,153.1h114.8h114.9V1518.4z M2424.7,1139.4c84.2-63.2,155.1-114.9,158.9-118.7c3.8-3.8-17.2-51.7-45.9-107.2c-26.8-55.5-61.3-130.2-72.7-164.6l-21.1-61.3l-191.4,137.8L2061,965.2l-5.7,178c-3.8,112.9,1.9,187.6,17.2,204.8C2095.4,1376.8,2129.9,1357.6,2424.7,1139.4z M5181.3,1328.9c36.3-15.3,84.2-57.4,105.3-91.9c36.4-61.3,38.3-93.8,38.3-1146.7c0-1039.5-1.9-1087.3-36.4-1129.4l-36.4-45.9l-926.5-9.6c-903.5-9.6-926.5-9.6-1003.1-51.7c-76.6-42.1-197.2-158.9-237.4-233.5c-17.2-32.5-38.3-40.2-120.6-40.2H2865l5.7,578.1c5.8,622.1,3.8,641.3-93.8,735.1l-55.5,53.6v239.3c0,356.1,42.1,497.7,214.4,752.3c95.7,139.7,201,225.9,371.4,306.3c212.5,99.5,291,107.2,1085.4,109.1C4982.2,1355.7,5127.7,1350,5181.3,1328.9z M9574.6,781.4V532.6h-838.5c-461.3,0-1345.7,5.7-1962.1,13.4l-1123.7,11.5v237.4v235.5h1962.1h1962.1V781.4z M2005.4,930.8c-34.5-49.8-42.1-32.5-9.6,26.8c11.5,21,24.9,32.5,30.6,28.7C2032.2,980.5,2022.7,955.6,2005.4,930.8z M6932.9,191.8c0-53.6-124.4-195.3-214.4-245L6617-108.7l-482.4-5.7l-484.3-7.7V42.5v164.6h641.3C6643.8,207.2,6932.9,199.5,6932.9,191.8z M2545.3-878.3l-5.7-513l-57.4-132.1l-57.4-132.1l-134-32.5c-72.7-17.2-153.1-42.1-176.1-53.6c-57.4-30.6-63.2-28.7-63.2,19.1c0,65.1-72.7,130.2-147.4,130.2c-88,0-130.2-24.9-158.9-95.7c-34.5-80.4,3.8-168.5,90-202.9c34.5-15.3,63.2-30.6,63.2-34.5c0-3.8-21.1-53.6-47.9-111c-26.8-55.5-47.9-116.8-47.9-135.9s-19.1-78.5-40.2-130.2c-34.5-80.4-38.3-103.4-19.1-145.5c11.5-26.8,32.5-143.6,42.1-258.4c19.1-191.4,19.1-212.5-13.4-246.9c-53.6-59.4-45.9-166.6,19.1-220.1l51.7-46h-279.5h-281.4l59.3,49.8c145.5,122.5,1.9,333.1-179.9,264.2c-36.4-15.3-86.1-105.3-86.1-160.8c0-23,24.9-67,55.5-97.6l55.5-55.5H912.4H638.6l55.5,55.5c70.8,72.7,74.7,157,7.7,222.1c-65.1,67-166.5,65.1-233.5-1.9l-49.8-49.8l13.4,224c5.7,122.5,15.3,231.6,21.1,239.3c5.7,9.6,34.5,3.8,65.1-11.5c70.8-36.4,143.6-19.2,193.3,44c84.2,107.2,13.4,254.6-124.4,254.6c-36.4,0-67,7.7-67,15.3c0,9.6,21.1,78.5,45.9,153.1c34.5,97.6,68.9,157,116.8,204.8c57.4,53.6,68.9,76.6,65.1,128.3c-3.8,36.4,5.7,93.8,19.1,128.3c23,53.6,32.5,61.3,76.6,47.9c84.2-23,143.6-9.6,189.5,40.2c53.6,61.3,53.6,141.7,1.9,208.7c-38.3,49.8-36.4,68.9,15.3,128.3c24.9,30.6,30.6,28.7,72.7-13.4c67-67,183.8-63.2,237.4,3.8c59.3,76.6,51.7,166.5-17.2,224l-57.4,47.9l120.6,95.7c310.1,243.1,551.3,363.7,876.8,434.6c67,13.4,155.1,26.8,195.3,26.8l74.7,1.9L2545.3-878.3z M3831.7-1718.6c120.6-164.6,237.4-310.1,258.4-325.4c59.3-42.1,157-32.5,210.6,21c84.2,84.2,67,143.6-114.9,386.7L4023.1-1420h327.3h329.3l-9.6-170.4c-21-359.9-208.7-580-543.7-633.6c-398.2-65.1-754.2,222.1-754.2,612.6c0,97.6,5.7,116.8,49.8,151.2c30.6,24.9,78.5,40.2,120.6,40.2C3609.6-1421.9,3619.2-1431.5,3831.7-1718.6z"/><path d="M3659.4,1147.1c-172.3-55.5-296.7-128.3-428.8-250.8c-356.1-335-447.9-784.9-246.9-1206c86.1-181.9,304.4-407.7,474.7-493.9c227.8-114.9,264.2-118.7,930.3-118.7h608.7l67,59.3c38.3,32.5,76.6,90,88.1,128.3c11.5,44,19.2,390.5,19.2,880.6c0,886.3,0,890.2-113,985.9l-63.2,51.7l-614.5-1.9C3843.2,1181.5,3751.3,1177.7,3659.4,1147.1z M4827.1,704.9V551.7h-564.7c-444.1,0-580-5.7-631.7-26.8c-118.7-49.8-141.7-170.4-49.8-262.3l55.5-55.5h595.4h595.3V44.4v-162.7h-603h-604.9l-45.9-47.9c-67-65.1-63.2-149.3,7.7-222.1l55.5-55.5h595.4h595.3v-78.5v-76.6l-549.4,5.8c-551.3,5.7-551.3,5.7-660.4,57.4c-296.7,137.8-455.6,446-403.9,781c45.9,291,222.1,501.5,490.1,583.9c57.4,19.1,227.8,26.8,603,26.8l520.7,1.9V704.9z"/><path d="M1503.9-1274.5c-80.4-34.5-116.8-124.4-84.2-202.9c67-162.7,306.3-116.8,306.3,57.4C1726-1301.3,1613-1228.6,1503.9-1274.5z"/><path d="M1138.3-1621c-93.8-65.1-68.9-222.1,40.2-268c112.9-47.9,222.1,24.9,222.1,143.6C1400.5-1617.2,1247.4-1544.4,1138.3-1621z"/><path d="M809-1950.3c-112.9-91.9-42.1-281.4,103.4-281.4c137.8,0,208.7,155.1,122.5,264.2C987-1906.2,872.2-1898.6,809-1950.3z"/><path d="M1458-1956c-82.3-82.3-63.2-204.8,38.3-258.4c157-82.3,313.9,134,185.7,254.6C1624.5-1904.3,1511.5-1902.4,1458-1956z"/><path d="M1155.5-2256.6c-42.1-17.2-84.2-120.6-70.8-178c26.8-122.5,174.2-164.6,268-76.6c99.5,93.8,34.5,269.9-101.5,266.1C1212.9-2245.1,1168.9-2250.8,1155.5-2256.6z"/><path d="M830.1-2582c-30.6-11.5-80.4-107.2-80.4-157c0-55.5,76.6-134,145.5-147.4c84.2-15.3,179.9,67,179.9,157C1075.1-2610.7,948.7-2534.1,830.1-2582z"/><path d="M1480.9-2582c-42.1-17.2-84.2-120.6-70.8-178c15.3-67,63.2-111,135.9-126.3c82.3-15.3,179.9,67,179.9,155.1c0,93.8-63.2,162.7-149.3,160.8C1538.4-2570.5,1494.3-2576.2,1480.9-2582z"/><path d="M6452.4-1956c-158.9-84.2-323.5-304.4-415.4-559l-51.7-139.7l-5.7-932.3c-5.8-815.5-9.6-934.2-34.5-934.2c-55.5,0-122.5-90-122.5-162.7c0-47.9,15.3-84.2,47.9-114.9l45.9-47.9h710.2h712.1l55.5,55.5c30.6,30.6,55.5,74.6,55.5,97.6c0,78.5-70.8,170.4-134,172.3c-24.9,0-28.7,114.9-28.7,913.1c0,1006.9,3.8,974.4-126.3,1242.4c-86.1,181.9-231.6,350.3-348.4,407.8C6707-1906.2,6546.2-1906.2,6452.4-1956z M6758.7-2298.7c63.2-59.3,162.7-254.6,183.8-359.9l13.4-63.2h-321.6h-319.7l11.5,70.8c17.2,105.3,120.6,302.5,187.6,358C6594-2224,6682.1-2227.8,6758.7-2298.7z M6952-3535.3v-488.1h-325.4h-325.4v474.7c0,262.3,5.7,482.4,13.4,488.1c5.7,7.7,153.1,13.4,325.4,13.4h312V-3535.3z M6952-4435v-86.2h-325.4h-325.4v72.7c0,40.2,5.7,80.4,13.4,86.1c5.7,7.7,153.1,13.4,325.4,13.4h312V-4435z"/><path d="M8412.6-1957.9c-118.7-59.4-264.2-227.8-348.4-407.8c-126.3-262.2-126.3-268-126.3-1261.5c0-729.4-3.8-894-24.9-894c-46,0-137.8-109.1-137.8-162.7c0-30.6,23-72.7,55.5-107.2l55.5-55.5h712.1h710.2l46,47.9c32.5,30.6,47.9,67,47.9,114.9c0,72.7-67,162.7-122.5,162.7c-24.9,0-28.7,118.7-34.5,932.3l-5.7,934.2l-51.7,139.7c-95.7,262.3-254.6,476.7-413.5,557.1C8669.1-1904.3,8519.8-1904.3,8412.6-1957.9z M8711.2-2292.9c67-55.5,170.4-252.7,187.6-358l11.5-70.8h-319.7H8269l13.4,63.2c21.1,105.3,114.9,287.1,180,354.1C8540.9-2225.9,8627-2222.1,8711.2-2292.9z M8919.9-3539.1l3.8-484.3h-325.4h-325.4v488.1v488.2l321.6-3.8l319.7-5.7L8919.9-3539.1z M8919.9-4438.8l5.7-82.3h-325.4h-327.3v86.2v86.1l321.6-3.8l319.7-5.7L8919.9-4438.8z"/></g></g>
</svg>