<?xml version="1.0" encoding="utf-8"?>
<!-- Svg Vector Icons : http://www.onlinewebfonts.com/icon -->
<!DOCTYPE svg PUBLIC "-//W3C//DTD SVG 1.1//EN" "http://www.w3.org/Graphics/SVG/1.1/DTD/svg11.dtd">
<svg version="1.1" xmlns="http://www.w3.org/2000/svg" xmlns:xlink="http://www.w3.org/1999/xlink" x="0px" y="0px" viewBox="0 0 1000 1000" enable-background="new 0 0 1000 1000" xml:space="preserve">
<metadata> Svg Vector Icons : http://www.onlinewebfonts.com/icon </metadata>
<g><g transform="translate(0.000000,512.000000) scale(0.100000,-0.100000)"><path d="M4416.9,5010.8c-358-74.7-666.2-289.1-813.7-564.8c-141.7-266.1-141.7-264.2-149.3-982.1l-5.8-649L3339,2922.1c-59.4,59.3-132.1,114.9-160.8,126.4c-132.1,49.8-256.5-84.2-199.1-214.4c15.3-32.6,126.4-160.8,248.9-281.4l222.1-220.2v-95.7v-93.8l-130.2,128.3c-107.2,105.3-139.8,128.3-191.5,128.3c-88.1,0-130.2-26.8-155.1-97.6c-32.6-91.9,9.6-157,254.6-400.1l222.1-220.2v-95.7v-93.8l-130.2,128.3c-111,109.1-139.8,128.3-197.2,128.3c-68.9,0-132.1-47.9-157-120.6c-23-65.1,40.2-157,262.3-377.2l222.1-220.2v-93.8v-93.8l-132.1,126.3c-145.5,141.7-204.9,158.9-294.8,90c-61.3-49.8-78.5-120.6-44-187.6c15.3-28.7,128.3-151.3,248.9-271.9L3450,379.6v-93.8V192l-132.1,126.4c-149.3,145.5-210.6,160.8-300.6,82.3c-40.2-34.5-53.6-61.3-53.6-114.9c0-65.1,21.1-90,243.1-314L3450-271.3v-264.2c0-143.6-3.8-262.3-9.6-262.3c-5.7,0-51.7,21.1-101.5,45.9c-147.4,74.7-289.1,197.2-367.6,321.7c-118.7,183.8-155.1,300.6-172.3,572.4c-30.6,451.8-116.8,658.6-390.6,926.6c-317.8,314-637.5,417.4-997.5,325.5C1016.7,1290.9,658.7,885,547.6,416c-42.1-181.9-26.8-685.4,30.6-955.3c116.8-549.5,373.3-1062.6,746.7-1497.2c430.8-501.6,1125.7-905.6,1778.6-1031.9c291-57.4,346.5-113,346.5-350.4v-141.7l-122.5,116.8c-130.2,126.4-185.7,151.3-264.2,120.6c-63.2-23-116.8-118.7-101.5-180c7.7-24.9,118.7-151.3,250.8-283.3l237.4-237.4v-93.8v-93.8l-122.5,116.8c-137.8,132.1-191.5,155.1-275.7,111c-61.3-32.5-105.3-124.4-86.2-180c7.7-17.2,63.2-88.1,126.3-157l113-124.4l-1367-3.8c-963-3.8-1376.5-11.5-1405.2-26.8c-45.9-23-84.2-93.8-84.2-153.2c0-21.1,24.9-65.1,55.5-95.7l55.5-55.5h4541.2H9542l55.5,55.5c59.4,59.3,68.9,112.9,32.5,180c-47.9,91.9,21.1,88.1-1870.5,90H5971.5l126.3,132.1c145.5,149.3,160.8,210.6,82.3,300.6c-34.5,40.2-61.3,53.6-114.9,53.6c-59.3,0-86.2-17.2-189.5-118.7c-65.1-65.1-126.3-118.7-134-118.7s-13.4,36.4-13.4,82.3c0,78.5,7.7,88.1,222.1,300.6c296.7,296.7,325.5,354.2,220.2,461.4c-88,88.1-137.8,74.7-287.2-68.9c-70.8-68.9-135.9-124.4-141.7-124.4c-7.7,0-13.4,36.4-13.4,80.4c0,76.6,9.6,90,237.4,321.6c149.3,151.3,243.1,260.4,252.7,294.8c26.8,109.1-84.2,222.1-193.4,195.3c-28.7-7.6-107.2-67-174.2-130.2l-122.6-116.8v91.9v91.9l248.9,252.7c158.9,160.8,248.9,268,248.9,292.9c0,65.1-38.3,132.1-90,155.1c-93.8,44.1-137.8,26.8-275.7-107.2l-132.1-126.4v91.9v91.9l248.9,252.7c260.4,264.2,273.8,289.1,220.2,390.5c-30.6,61.3-63.2,78.5-147.4,78.5c-44,0-86.2-26.8-189.5-128.3l-132.1-126.3v91.9v91.9l248.9,252.7c214.4,218.2,248.9,262.3,248.9,314c0,86.2-72.7,155.1-164.6,155.1c-59.4,0-88.1-17.2-201-128.3l-132.1-126.3v128.3c0,229.7,53.6,352.3,187.6,421.2c30.6,15.3,170.4,36.4,338.9,47.9c806,61.3,1489.5,363.8,2054.3,909.4c616.5,597.3,957.3,1326.8,1010.9,2165.3c30.6,463.3-114.9,874.9-407.8,1162.1c-618.4,606.9-1501,323.6-1805.4-578.2c-24.9-72.7-47.9-212.5-59.3-346.5c-9.6-124.5-34.5-281.4-55.5-348.4c-124.4-402.1-509.2-683.5-936.2-683.5c-84.2,0-126.3,11.5-174.2,44c-120.6,80.4-141.7,128.3-149.3,338.9l-7.7,191.5l250.8,256.5c256.5,260.4,275.7,292.9,227.8,381c-32.6,63.2-74.6,88.1-145.5,90c-53.6,0-86.1-21.1-197.2-128.3L5728.3,2968v91.9v91.9l248.9,252.7c260.4,264.2,273.8,289.1,220.2,390.6c-30.6,61.3-63.2,78.5-147.4,78.5c-44,0-86.2-26.8-189.5-128.3l-132.1-126.4v168.5v168.5l162.8,168.5c147.4,153.2,162.7,176.1,162.7,243.1c0,95.7-61.3,157-157,157c-55.5,0-88-19.1-170.4-90c-57.4-53.6-103.4-82.3-107.2-68.9c-24.9,70.8-168.5,260.4-275.7,359.9c-143.6,134-325.5,229.7-509.3,268C4711.7,5020.4,4503,5028,4416.9,5010.8z M4661.9,4348.4c63.2-32.5,88.1-74.7,90-145.5c0-82.3-72.7-157-153.2-157c-40.2,0-78.5-17.2-116.8-55.5l-55.5-55.5v-798.4v-796.4l-47.9-45.9c-65.1-67-149.3-63.2-222.1,9.6l-57.4,55.5l5.7,829c5.7,919,1.9,882.6,137.8,1026.2C4363.3,4342.6,4556.6,4405.8,4661.9,4348.4z M5029.5,3500.2l47.9-45.9V1101.4c0-2335.7,0-2351-38.3-2393.1c-78.5-84.2-210.6-67-262.3,34.5c-19.1,38.3-24.9,536.1-24.9,2368.2v2318.5l49.8,59.3C4864.9,3565.3,4960.6,3571.1,5029.5,3500.2z M8303.3,3486.8c40.2-47.9,47.9-72.7,40.2-118.7c-15.3-74.7-93.8-145.5-162.8-145.5c-30.6,0-74.6-17.2-99.5-36.4c-46-36.4-46-42.1-57.4-513.1c-13.4-501.6-24.9-572.4-118.7-779.2c-153.2-333.1-465.2-633.7-830.9-800.3c-179.9-80.4-463.3-149.3-622.2-149.3c-114.9,0-137.9,5.7-178,47.9c-65.1,63.2-63.2,151.2,5.7,218.3c46,45.9,70.8,53.6,204.8,63.2c302.5,21.1,620.3,168.5,857.7,394.4c151.3,147.4,231.7,264.2,296.7,440.3c46,120.6,49.8,157,59.4,616.5c11.5,449.9,15.3,493.9,53.6,564.8c82.3,153.2,247,256.5,411.6,258.5C8240.2,3548.1,8259.3,3540.5,8303.3,3486.8z M8628.8,3010.1c34.5-34.5,38.3-61.3,36.4-310.1c-7.7-672-266.1-1261.7-765.8-1734.6c-270-254.6-559-428.8-913.2-547.5c-298.7-99.6-480.5-124.4-913.2-124.4c-365.7,0-377.2,1.9-415.4,44c-21.1,23-44,57.4-49.8,74.7c-17.2,47.9,23,147.4,70.8,174.2c24.9,13.4,187.6,26.8,461.4,34.5c338.9,9.6,449.9,21.1,570.5,53.6c225.9,59.4,449.9,155.1,637.5,271.9c201,122.5,516.9,426.9,637.6,610.7c245.1,375.2,365.7,788.8,365.7,1255.9c0,135.9,5.7,158.9,44,193.4c23,21,55.5,44,70.8,49.8C8510.1,3073.3,8586.7,3052.3,8628.8,3010.1z M4336.5,1897.8c91.9-47.9,88.1,24.9,88.1-1939.4c0-1964.3,3.8-1891.5-88.1-1939.4c-67-36.4-120.6-26.8-180,32.5l-55.5,55.5V-41.6v1851.3l55.5,55.5C4215.9,1924.6,4269.5,1934.2,4336.5,1897.8z M1769.1,714.6c47.9-49.8,55.5-68.9,45.9-120.6c-13.4-67-90-147.4-143.6-147.4c-44,0-86.2-47.9-134-153.2c-107.2-233.5,7.7-815.6,239.3-1215.7c365.7-628,963-1030,1604.4-1076c149.3-9.6,178.1-17.2,216.3-59.3c84.2-91.9,38.3-233.6-86.2-266.1c-78.5-19.2-413.5,24.9-605,80.4c-369.5,107.2-691.1,302.5-987.9,601.1c-396.3,398.2-629.9,844.3-717.9,1376.5c-49.8,292.9-34.5,532.2,40.2,693c72.7,157,166.6,264.2,266.1,308.2C1623.6,789.3,1700.2,783.6,1769.1,714.6z M2092.7,65.6c45.9-45.9,55.5-72.8,55.5-145.5c0-181.9,99.6-457.6,241.2-672c225.9-340.8,547.5-560.9,869.2-595.4c137.8-13.4,199.1-65.1,199.1-172.3c0-51.7-13.4-80.4-55.5-116.8c-51.7-44.1-65.1-46-189.5-34.5c-486.3,45.9-987.9,453.7-1248.3,1016.6C1884-481.9,1822.7-233,1822.7-83.7c0,91.9,7.7,118.7,47.9,157C1935.7,140.3,2019.9,136.5,2092.7,65.6z M5035.3-2226c42.1-47.9,42.1-47.9,42.1-762c0-689.2-1.9-714.1-38.3-754.3c-78.5-84.2-210.6-67-262.3,34.5c-30.6,59.4-36.4,1367-5.7,1445.5c21.1,55.5,124.4,109.1,181.9,93.8C4974-2174.3,5010.4-2201.1,5035.3-2226z M4386.2-2551.5c38.3-49.8,40.2-70.8,40.2-844.3v-792.6l-47.9-46c-57.4-59.3-158.9-63.2-222.1-11.5l-45.9,36.4l-5.7,806l-5.7,806l47.9,47.9C4215.9-2480.7,4332.6-2482.6,4386.2-2551.5z"/></g></g>
</svg>