<?xml version="1.0" encoding="utf-8"?>
<!-- Svg Vector Icons : http://www.onlinewebfonts.com/icon -->
<!DOCTYPE svg PUBLIC "-//W3C//DTD SVG 1.1//EN" "http://www.w3.org/Graphics/SVG/1.1/DTD/svg11.dtd">
<svg version="1.1" xmlns="http://www.w3.org/2000/svg" xmlns:xlink="http://www.w3.org/1999/xlink" x="0px" y="0px" viewBox="0 0 1000 1000" enable-background="new 0 0 1000 1000" xml:space="preserve">
<metadata> Svg Vector Icons : http://www.onlinewebfonts.com/icon </metadata>
<g><path d="M500,10C229.4,10,10,229.4,10,500s219.4,490,490,490s490-219.4,490-490S770.6,10,500,10z M773.1,494.5v11v4.1H773c-2.1,32.7-29.3,58.5-62.5,58.5h-76.3h-66.1v142.4v62.6h-62.6h-11h-4.1V773c-32.7-2.1-58.5-29.3-58.5-62.5v-76.3v-66.1l-142.4,0h-62.6v-62.6v-11v-4.1h0.1c2.1-32.7,29.3-58.5,62.5-58.5h76.3h66.1l0-142.4v-62.6h62.6h11h4.1v0.1c32.7,2.1,58.5,29.3,58.5,62.5v76.3v66.1h142.4h62.6L773.1,494.5L773.1,494.5z"/></g>
</svg>