<?xml version="1.0" encoding="utf-8"?>
<!-- Svg Vector Icons : http://www.onlinewebfonts.com/icon -->
<!DOCTYPE svg PUBLIC "-//W3C//DTD SVG 1.1//EN" "http://www.w3.org/Graphics/SVG/1.1/DTD/svg11.dtd">
<svg version="1.1" xmlns="http://www.w3.org/2000/svg" xmlns:xlink="http://www.w3.org/1999/xlink" x="0px" y="0px" viewBox="0 0 1000 1000" enable-background="new 0 0 1000 1000" xml:space="preserve">
<metadata> Svg Vector Icons : http://www.onlinewebfonts.com/icon </metadata>
<g><g transform="translate(0.000000,511.000000) scale(0.100000,-0.100000)"><path d="M415.1,3761.5c-37.4-11.8-108.2-63-159.4-112.2c-167.3-159.4-155.5,53.1-155.5-2962.1c0-2367.6,3.9-2670.8,31.5-2765.2c59-198.8,78.7-212.6,1336.4-862c627.8-324.7,1180.9-600.3,1226.2-614.1c141.7-37.4,244.1,0,797.1,287.3c283.4,147.6,517.6,271.6,521.6,273.6c3.9,3.9-66.9,41.3-157.5,86.6c-90.5,43.3-206.7,102.3-257.8,133.8l-94.5,55.1l-232.2-122c-129.9-68.9-240.1-124-246-124c-5.9,0-11.8,153.5-11.8,342.4v342.5l-127.9,171.2c-106.3,141.7-236.2,375.9-340.5,620c-15.8,35.4-21.7-145.6-21.7-692.8c-2-409.4-7.9-744-15.8-744c-9.8,0-440.9,222.4-960.5,492l-944.7,490.1l-5.9,2617.6c-2,1440.7,0,2619.6,5.9,2619.6c3.9,0,438.9-222.4,964.4-494l954.6-494l2-1017.5c2-773.5,7.9-1001.8,23.6-956.5c61,163.3,242.1,488.1,342.5,620l114.2,147.6l9.8,586.5l9.8,588.5l974.2,509.8c535.3,279.5,984.1,509.7,997.9,509.7c11.8,0,452.7-222.4,978.2-496l956.5-496v-616v-618l106.3-151.6c118.1-169.3,289.3-503.8,340.5-671.1c35.4-108.3,35.4-94.5,45.3,958.5l9.8,1068.7l974.2,499.9c535.3,275.5,980.1,499.9,990,501.9c7.9,0,13.8-1176.9,13.8-2615.7v-2615.7l-468.4-238.2c-257.8-131.9-484.2-250-503.8-263.7c-31.5-23.6-29.5-33.5,35.4-137.8c37.4-63,78.7-159.4,92.5-212.6c13.8-53.1,33.5-96.4,41.3-96.4c9.8,0,261.8,124,557,277.5c409.4,210.6,557,297.2,608.2,354.3c137.8,151.5,131.9-15.7,125.9,2991.6l-5.9,2704.2l-43.3,80.7c-55.1,102.3-177.1,212.6-271.6,244c-41.3,13.8-126,19.7-192.9,15.7c-114.2-9.8-196.8-47.2-1149.4-535.3l-1025.4-525.5l-1003.8,519.6c-551.1,285.4-1031.3,529.4-1066.7,543.2c-82.7,27.5-212.6,27.5-293.3,0c-33.5-11.8-509.7-255.9-1056.9-541.2l-995.9-519.6L1757.4,3240c-990,511.7-1041.2,535.3-1155.3,541.2C537.1,3783.2,452.5,3775.3,415.1,3761.5z"/><path d="M4593.5,1397.8c-206.7-39.4-387.7-102.3-582.6-204.7c-964.4-503.8-1346.2-1686.7-858.1-2668.8c106.3-212.6,220.4-368,403.5-545.2c637.7-616,1570.6-740,2363.7-312.9c80.7,43.3,151.6,78.7,159.4,78.7c5.9,0,291.3-277.5,633.8-618c340.5-340.5,647.5-631.8,679-647.5c149.6-72.8,340.5-53.1,478.3,47.2c102.3,74.8,181.1,228.3,181.1,350.4c0,206.7,5.9,198.8-698.7,907.3l-653.4,659.3l74.8,157.5c116.1,248,157.5,431,169.3,747.9c7.9,224.4,2,309-29.5,462.5C6829.3,214.9,6658,537.7,6370.7,827c-271.6,273.6-539.3,431-907.3,533.4C5241,1421.4,4815.9,1439.1,4593.5,1397.8z M5365,748.3c220.4-70.9,387.7-175.2,560.9-346.4c171.2-171.2,273.6-338.5,348.4-560.9c47.2-139.7,53.1-187,53.1-423.2c0-234.2-5.9-283.4-51.2-419.2c-169.3-507.8-588.5-864-1125.8-954.6c-295.2-49.2-641.6,17.7-913.2,177.1c-143.7,82.7-409.4,348.4-492,492.1c-147.6,251.9-218.5,586.5-181.1,862c49.2,358.2,149.6,562.9,403.5,818.7c151.6,153.5,204.7,192.9,364.1,269.6c244,120.1,405.4,153.5,669.2,143.7C5150.4,801.4,5250.8,783.7,5365,748.3z"/></g></g>
</svg>