<?xml version="1.0" encoding="utf-8"?>
<!-- Svg Vector Icons : http://www.onlinewebfonts.com/icon -->
<!DOCTYPE svg PUBLIC "-//W3C//DTD SVG 1.1//EN" "http://www.w3.org/Graphics/SVG/1.1/DTD/svg11.dtd">
<svg version="1.1" xmlns="http://www.w3.org/2000/svg" xmlns:xlink="http://www.w3.org/1999/xlink" x="0px" y="0px" viewBox="0 0 1000 1000" enable-background="new 0 0 1000 1000" xml:space="preserve">
<metadata> Svg Vector Icons : http://www.onlinewebfonts.com/icon </metadata>
<g><g transform="translate(0.000000,511.000000) scale(0.100000,-0.100000)"><path d="M4650.7,4808.9c-339.4-177.9-398.7-603.2-120.6-871.1l81.8-77.7l-552.1-1118.5c-454-918.1-560.3-1118.5-597.1-1128.7c-26.6-4.1-529.6-77.7-1120.6-163.6c-591-83.8-1096-159.5-1124.6-163.6c-45-10.2-57.3,2-100.2,81.8c-87.9,167.7-274,276.1-472.4,276.1c-466.2,0-717.7-554.2-409-903.8c159.5-182,409-239.2,621.6-143.1l100.2,45l621.6-607.3c341.5-335.3,723.9-705.5,848.6-824.1l224.9-214.7l-216.8-1261.7c-118.6-695.2-216.8-1269.8-216.8-1282.1c0-10.2-40.9-24.5-90-30.7c-175.9-26.6-357.8-212.6-402.8-411c-75.7-337.4,186.1-664.6,533.7-664.6c206.5,0,378.3,102.2,480.5,288.3c53.2,94.1,61.3,132.9,61.3,263.8c0,122.7-10.2,169.7-47,233.1c-26.6,42.9-38.9,85.9-30.7,94.1c30.7,26.6,2143,1130.8,2163.4,1130.8c16.4,0,2163.4-1118.5,2196.2-1145.1c6.1-4.1-12.3-53.2-40.9-110.4c-55.2-122.7-61.3-292.4-12.3-411c43-100.2,167.7-235.2,267.9-286.3c253.5-128.8,603.2-16.3,732,235.2c53.2,106.3,71.6,308.8,36.8,415.1c-57.2,177.9-202.4,314.9-382.4,359.9c-53.2,12.3-104.3,28.6-112.5,34.8c-8.2,8.2-112.5,582.8-231.1,1278L7125-1008.6l108.4,106.3c59.3,59.3,466.2,454,901.8,879.3l793.4,772.9l55.2-51.1c227-212.7,574.6-194.3,781.1,40.9c257.6,292.4,130.9,752.5-243.3,879.3c-98.1,34.8-243.3,30.7-355.8-8.2c-114.5-38.9-265.8-182-302.6-284.2c-14.3-38.8-40.9-71.6-57.3-71.6c-34.7,0-2425.1,343.5-2492.6,357.8c-36.8,10.2-141.1,204.5-576.7,1085.8c-290.4,590.9-535.7,1094-543.9,1116.5c-8.2,30.7,6.1,55.2,61.3,102.2c245.4,200.4,259.7,568.5,34.8,793.4C5112.9,4886.6,4873.6,4923.4,4650.7,4808.9z M5061.7,1498.3c370.1-59.3,662.5-210.6,942.7-488.7c169.7-167.7,208.6-220.8,290.3-388.5C6452.2,296,6482.9,159,6480.8-248c0-319-4.1-361.9-55.2-527.6c-67.5-218.8-135-357.9-249.5-505.1c-335.3-433.5-817.9-676.8-1359.8-680.9c-263.8-2-406.9,22.5-635.9,110.4c-402.8,155.4-715.7,441.7-899.7,826.1c-137,282.2-169.7,441.7-169.7,817.9c0,378.3,32.7,533.7,173.8,824.1c69.5,145.2,116.5,206.5,290.4,380.3c145.2,143.1,255.6,233.1,361.9,292.4C4286.7,1486,4687.5,1559.6,5061.7,1498.3z"/></g></g>
</svg>