<?xml version="1.0" encoding="utf-8"?>
<!-- Svg Vector Icons : http://www.onlinewebfonts.com/icon -->
<!DOCTYPE svg PUBLIC "-//W3C//DTD SVG 1.1//EN" "http://www.w3.org/Graphics/SVG/1.1/DTD/svg11.dtd">
<svg version="1.1" xmlns="http://www.w3.org/2000/svg" xmlns:xlink="http://www.w3.org/1999/xlink" x="0px" y="0px" viewBox="0 0 1000 1000" enable-background="new 0 0 1000 1000" xml:space="preserve">
<metadata> Svg Vector Icons : http://www.onlinewebfonts.com/icon </metadata>
<g><g transform="translate(0.000000,458.000000) scale(0.100000,-0.100000)"><path d="M8154.8,3531.5l-719.3-477.6l-1545.9,3.9l-1545.9,5.8l-87.7,196.9c-107.2,247.6-181.3,335.3-339.2,407.4c-150.1,66.3-323.6,74.1-485.4,19.5c-97.5-31.2-146.2-74.1-516.6-440.6l-409.4-405.5l-9.7-485.4l-9.7-485.4l-163.8-138.4c-91.6-78-167.7-136.5-171.6-132.6c-3.9,3.9,33.1,167.7,81.9,364.5c109.2,426.9,109.2,504.9,9.8,658.9c-66.3,105.3-177.4,194.9-290.5,232c-44.8,15.6-265.1,23.4-674.5,23.4H671l-101.4-50.7c-255.4-126.7-372.3-423-259.3-655c87.7-181.3,306.1-327.5,491.2-327.5c29.2,0,72.1-17.5,97.5-37c44.8-35.1,46.8-50.7,52.6-302.2l7.8-263.2l-128.7-191c-382.1-575.1-577-1245.7-577-1994.2c0-111.1-15.6-228.1-46.8-354.8c-274.9-1078-13.7-2154.1,703.7-2900.7c294.4-308,606.3-495.2,996.1-598.5c163.8-44.8,230-50.7,501-52.6c271,0,341.1,5.9,532.2,52.6c280.7,64.3,407.4,122.8,538,247.6c311.9,294.3,321.7,822.6,29.2,1467.9c-54.6,118.9-120.9,280.7-148.2,354.8c-140.4,389.9-136.5,779.8,7.8,1046.8c64.3,118.9,259.3,302.2,384,364.6c235.9,115,536.1-37.1,939.6-475.7c194.9-212.5,284.6-272.9,440.6-302.2c269-50.7,514.6,113.1,610.2,405.5l33.1,101.4h202.7c183.2,0,204.7,3.9,255.4,46.8l54.6,46.8l5.8,723.2l5.8,721.3l1582.9,5.9c1742.8,5.8,1633.6-2,1750.6,126.7c296.3,317.8,341.2,947.4,99.4,1333.4l-54.6,83.8l64.3,109.2c142.3,233.9,193,541.9,134.5,807.1c-44.8,196.9-165.7,436.7-284.6,557.5l-95.5,97.5l19.5,117c46.8,292.4-107.2,674.5-315.8,779.8c-50.7,27.3-113.1,39-200.8,39h-126.7L8154.8,3531.5z M9174.4,3459.3c35.1-107.2,29.2-220.3-19.5-337.2l-29.3-68.2h-532.2h-532.2l477.6,319.7l477.6,321.7l62.4-70.2C9113.9,3588,9156.8,3512,9174.4,3459.3z M3811.5,3342.4c39-37,89.7-124.8,124.8-208.6c33.1-78,60.4-146.2,60.4-150.1c0-2-64.3-39-140.4-79.9c-378.2-196.9-660.8-647.2-660.8-1046.8c0-514.6,347-965,892.8-1165.8c101.4-37,169.6-42.9,623.8-52.6c475.7-11.7,514.6-13.7,563.4-52.6c85.8-62.4,128.7-132.6,138.4-228.1c19.5-165.7-52.6-300.2-198.8-366.5c-70.2-33.1-134.5-37-635.5-37h-557.5L3987,45.9c-50.7,132.6-245.6,319.7-391.8,376.2c-173.5,68.2-335.3,62.4-495.1-13.6c-70.2-33.1-156-87.7-189.1-118.9l-64.3-60.4v1232v1232l337.2,333.3c183.3,185.2,352.8,345,374.3,356.7C3638,3426.2,3739.4,3408.6,3811.5,3342.4z M4400.3,2669.8c42.9-126.7,198.8-165.7,288.5-74.1c27.3,25.3,48.7,60.4,48.7,78c0,23.4,29.2,29.2,175.4,29.2c146.2,0,175.5-5.8,175.5-29.2c0-58.5,91.6-126.7,165.7-126.7c74.1,0,165.7,68.2,165.7,126.7c0,23.4,29.2,29.2,173.5,29.2h173.5l23.4-58.5c29.3-72.1,72.1-97.5,161.8-97.5c66.3,0,130.6,50.7,156,122.8c9.7,27.3,37.1,33.1,179.4,33.1s169.6-5.8,179.4-33.1c25.3-72.1,89.7-122.8,155.9-122.8c89.7,0,132.6,25.3,161.8,97.5l23.4,58.5h173.5c144.3,0,173.5-5.8,173.5-29.2c0-58.5,91.6-126.7,165.7-126.7c74.1,0,165.7,68.2,165.7,126.7c0,23.4,29.2,29.2,175.4,29.2c146.2,0,175.4-5.8,175.4-29.2c0-17.5,21.4-52.6,48.7-78c89.7-91.6,245.6-52.6,288.5,74.1c9.8,27.3,37.1,33.1,179.4,33.1c91.6,0,165.7-7.8,165.7-17.5s23.4-44.8,50.7-78c83.8-99.4,232-79.9,280.7,37l23.4,58.5h173.5c156,0,173.5-3.9,173.5-35.1c0-19.5,21.4-56.5,46.8-79.9c37-35.1,64.3-42.9,130.6-39l83.8,7.8l37-107.2c29.2-83.8,35.1-146.2,29.2-284.6c-5.8-159.8-15.6-194.9-79.9-327.5l-74.1-148.2H6472.5H3550.3l-13.6,109.2c-7.8,72.1-5.8,115,9.7,130.6c15.6,15.6,21.4,15.6,21.4-1.9c0-11.7,27.3-37,60.4-52.6c76-40.9,159.8-23.4,212.5,42.9c56.5,74.1,50.7,154-19.5,224.2c-52.6,52.6-70.2,58.5-138.4,48.7l-76-9.7l42.9,78c95.5,167.6,348.9,356.7,561.4,417.2C4335.9,2710.8,4386.6,2708.8,4400.3,2669.8z M1928.4,2500.2c25.3-23.4,40.9-60.4,40.9-103.3c0-35.1-66.3-335.3-150.1-664.7c-130.6-528.3-156-606.3-208.6-668.7c-33.1-39-136.5-157.9-228.1-263.2c-204.7-235.9-364.5-446.4-528.3-694c-187.1-286.6-173.5-269-159.8-191c42.9,247.6,265.1,731,464,1007.8l128.7,179.3v337.3c0,382.1-17.5,448.4-152.1,586.8c-95.5,99.4-191,146.2-339.2,167.7c-134.5,17.5-191,64.3-191,157.9c0,97.5,33.1,154,101.4,173.5c37,11.7,304.1,17.5,621.9,15.6C1848.5,2537.3,1889.4,2535.3,1928.4,2500.2z M2538.6-49.6c17.5-40.9,54.6-103.3,79.9-136.5c25.3-35.1,58.5-107.2,70.2-159.8c52.6-212.5,206.6-401.6,407.4-495.1c91.6-42.9,136.5-52.6,267.1-50.7c130.6,0,173.5,9.7,269,56.5c130.6,64.3,286.6,220.3,349,348.9l42.9,91.6l596.5-5.9l598.5-5.8l72.1-56.5c122.8-93.6,128.7-124.7,128.7-682.3c0-489.3,0-497.1-44.8-547.8c-33.1-39-68.2-54.6-136.4-62.4l-93.6-11.7l-237.8,243.7c-261.2,267.1-421.1,389.9-639.4,491.3c-261.2,124.7-489.3,126.7-695.9,9.7c-465.9-261.2-692-680.4-660.9-1216.4c19.5-321.7,85.8-538,325.6-1081.9c142.3-323.6,189.1-596.5,132.6-783.7c-33.1-109.2-173.5-259.3-274.9-294.4c-230-79.9-374.3-101.4-676.5-101.4c-343.1,0-495.1,33.1-746.6,157.9C1185.7-4098.5,788-3607.3,579.4-2989.3c-169.6,499-183.3,1126.8-35.1,1643.3c156,534.2,475.7,1132.6,892.8,1666.7c216.4,276.8,598.5,692,844.1,916.2l204.7,189.1l9.7-701.8C2503.5,120,2509.3,12.8,2538.6-49.6z M9396.6,1295.5c66.3-72.1,136.5-233.9,157.9-364.5c19.5-130.6,3.9-274.9-46.8-397.7c-27.3-62.4-35.1-66.3-107.2-64.3c-87.7,1.9-179.4-64.3-179.4-128.7c0-31.2-17.5-35.1-173.5-35.1h-173.5l-19.5,58.5c-13.6,37-46.8,70.2-89.7,89.7c-58.5,29.2-76,29.2-128.7,7.8c-37.1-15.6-74.1-52.6-93.6-91.6l-31.2-64.3h-161.8H8188l-27.3,66.3c-56.5,134.5-241.7,134.5-304.1-2l-29.2-64.3h-169.6c-136.5,0-171.5,5.8-171.5,27.3c0,15.6-21.4,52.6-46.8,81.9c-33.1,40.9-64.3,54.6-115,54.6c-79.9,0-169.6-68.2-169.6-128.7c0-31.2-17.5-35.1-171.5-35.1c-171.5,0-171.5,0-193,56.5c-50.7,138.4-249.5,144.3-311.9,9.8l-33.1-66.3h-157.9h-157.9l-33.1,66.3c-42.9,89.7-140.4,124.8-228.1,79.9c-33.1-17.5-66.3-44.8-72.1-58.5c-13.7-40.9-44.8-15.6-44.8,37c0,83.8-117,280.7-226.1,380.1c-179.3,163.8-255.4,183.2-733,179.4c-419.1-3.9-606.3,19.5-740.8,85.8c-91.6,46.8-267.1,185.2-290.5,228.1c-17.5,33.1,68.2,35.1,2787.7,35.1h2807.1L9396.6,1295.5z M3528.9,86.8c124.8-62.4,181.3-177.4,169.6-335.3c-17.6-194.9-117-290.5-321.7-300.2c-109.2-3.9-144.3,1.9-206.6,39c-99.4,58.5-148.2,152.1-148.2,284.6c0,118.9,33.1,210.5,101.4,272.9C3220.9,137.5,3394.4,153.1,3528.9,86.8z M5942.2-644.2l-5.8-600.4l-81.9-5.8l-79.9-5.8l-7.8,347c-5.9,337.2-7.8,350.9-62.4,454.2c-29.2,58.5-81.9,134.5-113,169.6l-60.4,62.4l74.1,87.7l72.1,89.7h134.5h134.5L5942.2-644.2z"/><path d="M4160.5,2527.5c-111.1-44.8-140.4-202.7-54.6-282.7c113.1-105.3,280.7-31.2,280.7,122.8C4386.6,2486.6,4265.8,2572.3,4160.5,2527.5z"/><path d="M4840.8,2517.8c-117-50.7-138.4-173.5-46.8-265.1c68.2-68.2,150.1-74.1,222.2-17.5c103.3,81.9,76,247.6-46.8,290.5c-35.1,11.7-62.4,21.4-64.3,21.4C4903.2,2545.1,4875.9,2533.4,4840.8,2517.8z"/><path d="M5546.5,2529.5c-122.8-50.7-156-206.6-60.4-286.6c74.1-64.3,155.9-60.4,228.1,9.7c93.6,93.6,70.2,216.4-50.7,267.1c-37.1,15.6-70.2,27.3-72.1,25.3C5587.5,2545.1,5568,2537.3,5546.5,2529.5z"/><path d="M6226.9,2527.5c-109.2-44.8-140.4-200.8-56.5-282.7c103.3-105.3,282.7-31.2,282.7,115C6453,2480.7,6330.2,2570.4,6226.9,2527.5z"/><path d="M6907.2,2517.8c-117-50.7-138.4-173.5-46.8-265.1c72.1-70.2,154-74.1,228.1-9.7c72.1,60.4,76,167.7,7.8,233.9C7032,2539.2,6981.3,2550.9,6907.2,2517.8z"/><path d="M7591.5,2519.7c-115-50.7-132.6-206.6-33.1-284.6c72.1-56.5,154-50.7,222.2,17.5c93.6,93.6,70.2,216.4-50.7,267.1C7651.9,2550.9,7665.5,2550.9,7591.5,2519.7z"/><path d="M8304.9,2533.4c-120.9-44.8-157.9-200.8-68.2-288.5c101.4-103.3,282.7-29.2,282.7,115C8519.4,2472.9,8398.5,2570.4,8304.9,2533.4z"/><path d="M8973.6,2517.8c-117-50.7-138.4-173.5-46.8-265.1c93.6-93.6,216.4-70.2,267.1,50.7C9252.3,2445.6,9115.9,2580.1,8973.6,2517.8z"/><path d="M1676.9-141.2c-335.3-109.2-559.5-423-775.9-1093.6c-118.9-372.3-130.6-438.6-130.6-828.5c0-269,9.7-389.9,37-516.6c66.3-304.1,194.9-606.3,352.8-828.5c239.8-337.2,721.3-666.7,1081.9-742.7c395.7-81.9,760.3,154,760.3,493.2c0,208.6-111.1,440.6-356.7,744.7c-159.9,198.8-206.6,284.6-228.1,419.1c-23.4,150.1,9.7,317.8,134.5,694c142.3,419.1,165.7,526.3,163.8,750.5c-1.9,386-194.9,695.9-532.2,855.8c-107.2,50.7-152,60.4-292.4,64.3C1799.8-127.6,1704.2-131.5,1676.9-141.2z M2057.1-492.1c105.3-48.7,193-144.2,255.4-282.7c101.4-220.3,81.9-442.5-74.1-879.2c-255.4-721.3-224.2-1044.9,146.2-1481.6c319.7-376.2,356.7-594.6,115-674.5c-189.1-62.4-522.4,81.9-859.7,376.2c-222.2,193-409.4,516.6-493.2,846c-64.3,253.4-64.3,742.7,0,986.4c56.5,216.4,196.9,600.4,278.8,766.1C1583.4-513.6,1823.1-383,2057.1-492.1z"/><path d="M1657.4-946.3c-208.6-107.2-251.5-352.8-95.5-532.2c150.1-171.5,454.2-130.6,551.7,74.1c40.9,87.7,40.9,232-2,319.7C2037.6-928.8,1819.2-862.5,1657.4-946.3z"/><path d="M6170.3,763.3c-105.3-103.3-31.2-282.7,117-282.7c95.5,0,165.7,70.2,165.7,165.7C6453,794.5,6273.7,868.6,6170.3,763.3z"/><path d="M6885.8,798.4c-33.1-13.6-81.9-111.1-81.9-167.6c0-25.4,21.4-70.2,48.7-99.4c103.3-113.1,290.5-37,290.5,118.9C7143.1,767.2,7006.6,847.1,6885.8,798.4z"/><path d="M7544.7,763.3c-99.4-105.3-29.2-282.7,111.1-282.7c89.7,0,132.6,25.3,161.8,95.5C7887.8,749.6,7671.4,897.8,7544.7,763.3z"/><path d="M8236.7,763.3c-105.3-103.3-31.2-282.7,117-282.7c95.5,0,165.7,70.2,165.7,165.7C8519.4,794.5,8340,868.6,8236.7,763.3z"/><path d="M8919,763.3c-109.2-107.2-31.2-282.7,122.8-282.7c99.4,0,167.7,68.2,167.7,169.6C9209.5,792.5,9022.3,866.6,8919,763.3z"/></g></g>
</svg>