<?xml version="1.0" encoding="utf-8"?>
<!-- Svg Vector Icons : http://www.onlinewebfonts.com/icon -->
<!DOCTYPE svg PUBLIC "-//W3C//DTD SVG 1.1//EN" "http://www.w3.org/Graphics/SVG/1.1/DTD/svg11.dtd">
<svg version="1.1" xmlns="http://www.w3.org/2000/svg" xmlns:xlink="http://www.w3.org/1999/xlink" x="0px" y="0px" viewBox="0 0 1000 1000" enable-background="new 0 0 1000 1000" xml:space="preserve">
<metadata> Svg Vector Icons : http://www.onlinewebfonts.com/icon </metadata>
<g><path d="M623.7,213.8C679.6,111,763.1,10,763.1,10H235.5c0,0,85,101.3,140.8,203.8c-77.8,42-271,177.5-267.8,488.2C120.9,887.7,235,989.9,447.7,989.9l29.8-0.2c4.4,0,8.3,0,13.5,0.3c2.6,0,5.7-0.3,9.1-1.1c3.4,0.9,6.4,1.1,9,1.1l1.9-0.1c3.3-0.2,7.2-0.2,11.7-0.2l29.8,0.2c212.6,0,326.8-102.2,339.2-289.3C894.7,391.2,701.5,255.7,623.7,213.8z M841.2,698.7c-13.8,206.9-161.7,241.5-288.9,241.5l-29.8-0.2c-3.1,0-6,0-8.6,0.1h-28c-2.6-0.1-5.5-0.1-8.6-0.1l-29.8,0.2c-127.2,0-275.1-34.5-288.9-240.1c-3.2-317.8,217.4-432.8,261.6-452.7l23-10.3l-10.6-22.7c-23.1-49.7-66.2-122.1-95.4-161.2h324.9c-29.1,39.1-72.3,111.5-95.4,161.2l-10.5,22.7l23,10.3C623.8,267.3,844.4,382.4,841.2,698.7z M551.1,553.3c-10-2.7-19.4-4.9-28.3-7.1v-96.8c24.9,0,45.5,23.5,46,52.5h78.7c-4.4-75.5-58.8-109.4-124.7-116.5v-42.1h-32.7v42.1c-66.5,3.8-128.6,42.1-128.6,117c0,72.7,55.4,94.1,110.9,108.8c7.2,1.6,13.9,3.3,17.8,4.9v114.3c-33.8-6.6-59.9-31.7-59.3-72.2h-78.7c8.3,85.9,56,130.1,138,136.2v46.5h32.7v-46.5c110.3-7.1,138.6-83.1,138.6-114.3C661.4,643.5,659.2,582.8,551.1,553.3z M490.2,538.5c-35.5-8.2-49.9-19.7-49.9-43.7c0-30.1,24.9-45.4,49.9-45.4V538.5z M522.9,730.4v-105c43.8,12,59.9,22.4,59.9,51.4C582.8,711.8,550,727.7,522.9,730.4z"/></g>
</svg>