<?xml version="1.0" encoding="utf-8"?>
<!-- Svg Vector Icons : http://www.onlinewebfonts.com/icon -->
<!DOCTYPE svg PUBLIC "-//W3C//DTD SVG 1.1//EN" "http://www.w3.org/Graphics/SVG/1.1/DTD/svg11.dtd">
<svg version="1.1" xmlns="http://www.w3.org/2000/svg" xmlns:xlink="http://www.w3.org/1999/xlink" x="0px" y="0px" viewBox="0 0 1000 1000" enable-background="new 0 0 1000 1000" xml:space="preserve">
<metadata> Svg Vector Icons : http://www.onlinewebfonts.com/icon </metadata>
<g><g transform="translate(0.000000,511.000000) scale(0.100000,-0.100000)"><path d="M1535.3,4973.1c-67.9-21.9-155.5-61.3-197.1-85.4c-39.4-24.1-311-284.7-600.1-578.2c-481.8-486.2-532.2-543.1-578.2-663.6c-94.2-254.1-76.7-541,48.2-755.6c26.3-41.6,652.6-685.5,1395.1-1427.9L2952.3,108.9l-1371-1373.2C282.5-2565.2,205.9-2646.2,157.7-2771.1c-72.3-186.2-72.3-470.9,0-657c46-120.5,100.7-181.8,613.2-692.1c516.9-519.1,571.6-565.1,692.1-611c254.1-94.2,543.1-76.7,755.6,48.2c41.6,26.3,685.5,652.6,1430.1,1395.1L5000-1938.8l1353.5-1349.1c742.5-742.5,1386.3-1368.8,1427.9-1395.1c212.4-124.8,501.5-142.4,755.6-48.2c120.5,46,175.2,92,692.1,611c519.1,516.9,565.1,571.6,611,692.1c94.2,254,76.7,543.1-48.2,755.6c-26.3,41.6-652.6,685.5-1395.1,1430.1L7047.7,108.9l1349.1,1353.5c742.5,742.5,1368.8,1386.3,1395.1,1427.9c124.8,212.4,142.4,501.5,48.2,755.6c-46,120.5-92,175.2-611,692.1c-510.3,512.5-571.6,567.2-692.1,613.2c-186.2,72.3-470.9,72.3-657,0c-124.8-48.2-205.9-124.8-1506.8-1423.6L5000,2156.6L3646.5,3505.7c-742.5,742.4-1386.3,1368.8-1427.9,1395.1C2023.7,5014.7,1756.5,5043.2,1535.3,4973.1z"/></g></g>
</svg>