<?xml version="1.0" encoding="utf-8"?>
<!-- Svg Vector Icons : http://www.onlinewebfonts.com/icon -->
<!DOCTYPE svg PUBLIC "-//W3C//DTD SVG 1.1//EN" "http://www.w3.org/Graphics/SVG/1.1/DTD/svg11.dtd">
<svg version="1.1" xmlns="http://www.w3.org/2000/svg" xmlns:xlink="http://www.w3.org/1999/xlink" x="0px" y="0px" viewBox="0 0 1000 1000" enable-background="new 0 0 1000 1000" xml:space="preserve">
<metadata> Svg Vector Icons : http://www.onlinewebfonts.com/icon </metadata>
<g><g transform="translate(0.000000,511.000000) scale(0.100000,-0.100000)"><path d="M4741.3,4843.6c-128.5-39.6-257.1-170.1-302.6-304.5c-77.1-235.3,11.9-456.8,243.2-605.1c4-4-253.1-533.9-571.5-1180.6l-579.4-1174.7L2324.7,1377c-664.5-110.7-1214.2-201.7-1222.1-199.7c-5.9,0-23.7,33.6-37.6,75.1c-71.2,217.5-247.2,344.1-476.6,342.1c-215.6,0-399.5-136.5-458.8-340.1c-39.6-130.5-39.6-162.1,0-292.7c96.9-328.3,492.4-446.9,785.1-235.3c29.7,23.7,130.5-71.2,905.7-846.4l874.1-874.1l-221.5-1291.4c-122.6-711.9-227.4-1313.1-233.4-1336.8c-7.9-33.6-25.7-45.5-63.3-45.5c-69.2-2-217.5-69.2-286.7-134.5c-150.3-140.4-191.8-385.6-98.9-573.5c209.6-421.2,826.6-338.2,923.5,124.6c25.7,128.5,0,253.1-75.1,369.8l-49.4,75.1l55.4,27.7c29.7,15.8,545.8,286.7,1149,603.2l1095.6,575.5l1129.2-593.3c620.9-326.3,1141-601.2,1154.9-609.1c19.8-13.8,13.8-39.6-25.7-116.7c-65.3-124.6-81.1-235.3-51.4-354c67.2-265,332.2-427.2,593.3-363.9c294.6,71.2,456.8,391.6,338.2,668.4c-75.1,174-255.1,300.6-427.1,300.6h-57.4L7320-2356.7c-124.6,719.8-225.4,1319-227.4,1332.9c-2,11.9,421.2,439,941.3,945.3L8979.2,845l73.2-75.2c265-272.9,719.8-162.2,826.6,201.7c120.6,415.3-300.6,765.3-692.1,573.5c-116.7-57.3-223.5-178-243.2-274.9c-5.9-29.7-19.8-59.3-27.7-65.3c-21.8-11.9-2651.9,367.8-2669.7,385.6c-5.9,5.9-267,532-581.4,1168.7c-514.2,1046.1-565.6,1156.9-533.9,1176.6c298.6,172.1,354,561.6,114.7,795C5109.1,4863.4,4933.1,4902.9,4741.3,4843.6z M5030,4507.4c92.9-94.9,63.3-245.2-59.3-296.6c-57.3-23.7-77.1-23.7-134.5,0c-183.9,77.1-130.5,348.1,67.2,348.1C4956.9,4558.8,4992.5,4545,5030,4507.4z M5388,2620.8c267-537.9,484.5-984.8,484.5-992.7c0-5.9-47.5,13.8-102.8,43.5c-263,140.4-660.5,237.3-976.9,237.3c-195.8,0-478.6-47.5-666.4-110.7c-77.1-25.7-144.4-43.5-148.3-37.6c-13.8,13.8,893.8,1849,911.7,1843.1C4897.5,3601.7,5123,3158.7,5388,2620.8z M5279.2,1535.2c621-180,1087.7-646.7,1277.5-1277.5c47.5-158.2,53.4-211.6,55.4-474.6c2-249.2-6-322.3-43.5-464.7c-180-668.4-737.6-1200.4-1396.1-1334.8c-178-35.6-539.9-41.5-704-9.9c-561.6,106.8-1046.1,472.6-1305.2,988.8C2916-545.2,2908.1,36.2,3143.4,538.5c241.3,516.1,717.9,897.8,1275.5,1022.4C4620.7,1606.4,5079.5,1592.5,5279.2,1535.2z M715,1238.5c89-79.1,89-181.9,0-261c-85-77.1-166.1-75.1-243.2,0C301.7,1149.5,533.1,1400.7,715,1238.5z M9546.8,1226.7c63.3-75.1,59.3-176-13.8-249.2c-77.1-75.1-158.2-77.1-243.2,0c-91,81.1-89,181.9,2,263c55.4,49.4,77.1,57.3,138.4,47.5C9471.6,1282,9519.1,1256.3,9546.8,1226.7z M7533.6,1080.3c581.4-83.1,1056-160.2,1056-172.1c-4-15.8-1714.5-1688.8-1722.5-1682.9c-2,2,7.9,61.3,23.7,132.5c91,446.9,31.6,917.6-168.1,1332.9c-69.2,146.3-193.8,336.2-328.3,500.3l-51.4,63.3l67.2-9.9C6446,1238.5,6952.2,1165.4,7533.6,1080.3z M3096,1054.6C2797.4,665,2658.9,228,2672.8-280.2l5.9-263l-706,706c-389.6,387.6-702,709.9-696.1,715.9c11.9,11.9,1912.3,334.2,1922.2,326.3C3202.8,1202.9,3155.3,1135.7,3096,1054.6z M6987.8-2255.8c112.7-652.6,201.7-1188.5,197.8-1192.5c-5.9-5.9-2042.8,1060-2070.5,1083.7c-7.9,7.9,81.1,37.6,195.8,67.2c605.1,150.3,1141,583.4,1413.9,1145c23.7,51.4,47.5,91,51.4,87C6780.2-1069.3,6875.1-1605.2,6987.8-2255.8z M3072.3-1476.7c310.5-444.9,830.6-767.3,1382.3-856.3c96.9-15.8,181.9-31.7,185.9-35.6c4-5.9-452.9-249.2-1014.5-545.8c-563.6-294.6-1026.3-531.9-1030.3-528c-4,3.9,73.2,474.6,172.1,1048.1c96.9,573.5,178,1052.1,178,1063.9C2945.7-1300.6,2955.6-1312.5,3072.3-1476.7z M2303-3992.1c77.1-33.6,108.8-83,108.8-170.1c0-87-92.9-178-181.9-178c-193.8,2-247.2,268.9-71.2,346.1C2239.7-3958.5,2223.9-3960.5,2303-3992.1z M7689.8-4009.9c15.8-13.8,39.6-51.4,53.4-87c75.2-176-136.4-318.4-286.7-191.8c-65.3,55.4-83,148.3-39.6,227.4C7462.4-3976.3,7614.7-3948.6,7689.8-4009.9z"/></g></g>
</svg>