<?xml version="1.0" encoding="utf-8"?>
<!-- Svg Vector Icons : http://www.onlinewebfonts.com/icon -->
<!DOCTYPE svg PUBLIC "-//W3C//DTD SVG 1.1//EN" "http://www.w3.org/Graphics/SVG/1.1/DTD/svg11.dtd">
<svg version="1.1" xmlns="http://www.w3.org/2000/svg" xmlns:xlink="http://www.w3.org/1999/xlink" x="0px" y="0px" viewBox="0 0 1000 1000" enable-background="new 0 0 1000 1000" xml:space="preserve">
<metadata> Svg Vector Icons : http://www.onlinewebfonts.com/icon </metadata>
<g><g transform="translate(0.000000,512.000000) scale(0.100000,-0.100000)"><path d="M1114.5,120v-4900H5000h3885.5v4168.8v4166.9l-733.1,733.1L7421.3,5020H4266.9H1114.5V120z M7044.2,3896.4l3.8-713.9h708.2h708.2V627.2V-1928H5000H1535.5v3273v3273l2752.4-3.8l2750.5-5.7L7044.2,3896.4z M7861.5,3986.4l402-402h-407.7H7450v402c0,222,1.9,402,5.7,402C7457.7,4388.4,7641.4,4208.4,7861.5,3986.4z M8464.5-3354v-1024H5000H1535.5v1024v1024H5000h3464.5V-3354z"/><path d="M4268.8,3722.3c-151.2-139.7-335-495.8-580-1123.6c-65.1-168.4-134-352.2-153.1-407.7c-30.6-97.6-34.4-99.5-91.9-91.9c-329.2,53.6-1276.7,76.6-1393.4,34.5c-254.6-90-32.5-534,413.4-825c199.1-130.2,419.2-233.5,679.5-319.6l210.5-68.9v-90c0-252.7,183.8-696.7,409.6-999.1c352.2-465.1,1025.9-964.7,1251.8-928.3c91.9,13.4,313.9,130.2,490,256.5c287.1,204.8,633.6,568.5,819.2,857.5c141.6,222,256.5,532.1,279.4,759.9l13.4,132.1l223.9,72.7c442.1,145.5,779,338.8,995.3,572.3c241.2,260.3,296.7,499.6,134,572.3c-91.9,40.2-555.1,42.1-1066.1,3.8c-199.1-15.3-371.3-28.7-380.9-28.7s-34.4,47.9-55.5,105.3c-128.3,352.2-338.8,863.2-438.3,1060.4c-178,356-315.8,528.3-421.1,528.3c-76.6,0-241.2-109.1-403.9-268c-99.5-93.8-191.4-172.3-204.8-172.3s-107.2,80.4-208.6,178c-179.9,174.2-266.1,231.6-380.9,254.6C4362.6,3796.9,4339.6,3787.3,4268.8,3722.3z M4799,2993c118.7-59.3,202.9-67,327.3-30.6c93.8,26.8,135.9,55.5,268,185.7l157,151.2l38.3-63.2c120.6-195.2,566.6-1297.7,535.9-1326.4c-13.4-13.4-421.1-80.4-631.6-103.4c-237.3-26.8-727.3-26.8-968.5-1.9c-170.4,19.1-637.4,93.8-650.8,105.3c-19.1,17.2,310.1,849.8,457.5,1156.1l114.8,237.3l137.8-135.9C4661.2,3092.5,4756.9,3016,4799,2993z M3034.3,1725.9c310.1-23,319.6-24.9,319.6-65.1c0-38.3,24.9-47.9,283.3-111c587.6-145.5,1154.2-202.9,1665.2-166.5c446,30.6,859.4,99.5,1202,197.1c130.2,38.3,151.2,49.8,145.5,82.3c-5.7,36.4,11.5,40.2,325.4,61.3c181.8,13.4,365.6,23,407.7,23h76.6l-95.7-68.9c-532.1-380.9-1581-583.8-2725.6-524.5c-725.4,38.3-1248,145.5-1678.6,344.5c-141.6,65.1-390.5,218.2-390.5,239.3C2569.1,1752.7,2691.6,1748.9,3034.3,1725.9z M4094.7,786.1c158.9-17.2,199.1-28.7,206.7-55.5c21.1-63.2,122.5-132.1,195.2-132.1c51.7,0,82.3,15.3,134,67l67,67h310.1h310.1l42.1-57.4c82.3-111,287.1-88,335,38.3c17.2,45.9,32.5,57.4,80.4,57.4c30.6,0,139.7,13.4,239.3,26.8c99.5,15.3,183.7,24.9,185.7,23c15.3-15.3-76.6-312-130.2-415.4c-80.4-162.7-212.5-361.8-237.4-361.8c-11.5,0-197.1,65.1-413.4,143.6c-214.4,78.5-400,143.6-411.5,143.6c-11.5,0-212.5-68.9-446-153.1C4328.2,93.2,4132.9,24.3,4131,24.3c-3.8,0-40.2,49.8-82.3,111c-139.7,199.1-229.7,402-283.3,643.1c-11.5,55.5-11.5,55.5,61.3,44C3866.9,814.8,3987.5,799.5,4094.7,786.1z M5465.1-354.7c-103.3-90-327.3-248.8-413.4-292.9l-72.7-38.3l-93.8,51.7c-128.2,68.9-428.7,300.5-423,323.5c1.9,11.5,124.4,63.2,271.8,116.7l269.9,97.6l268-97.6l268-97.6L5465.1-354.7z"/><path d="M1824.6-2571.2c-91.9-65.1-97.6-114.8-97.6-782.9c0-700.5,3.8-731.2,122.5-788.6c97.6-45.9,197.2-17.2,256.5,70.8l44,65.1l-5.7,677.6l-5.7,677.6l-63.2,55.5C2002.6-2531,1897.3-2521.4,1824.6-2571.2z"/><path d="M2754.8-2569.3c-103.4-38.3-216.3-126.3-283.3-216.3c-99.5-135.9-112.9-204.8-112.9-576.1c0-331.1,1.9-338.8,53.6-451.7c63.2-130.1,176.1-243.1,308.2-302.4c137.8-65.1,359.8-59.3,503.4,11.5c134,65.1,268,210.5,312,335c42.1,120.6,61.3,528.3,30.6,702.5c-40.2,224-149.3,377.1-338.8,470.8C3110.8-2538.6,2869.6-2525.2,2754.8-2569.3z M3097.4-3007.6l65.1-65.1v-277.5c0-248.8-3.8-281.4-38.3-325.4c-57.4-72.7-153.1-99.5-235.4-65.1c-116.8,49.8-128.2,84.2-128.2,392.4v275.6l65.1,65.1c49.8,49.8,80.4,65.1,135.9,65.1C3017-2942.5,3047.7-2957.8,3097.4-3007.6z"/><path d="M4578.9-2573.1c-55.5-21-126.3-72.7-202.9-147.4c-164.6-164.6-179.9-220.1-179.9-643.1v-338.8l57.4-116.7c67-132.1,176.1-239.3,304.3-296.7c67-32.5,124.4-42.1,241.2-42.1c201,1.9,319.6,51.7,447.9,193.3c143.6,157,164.6,237.4,164.6,629.7c0,313.9-1.9,329.2-51.7,434.5c-67,143.6-199.1,269.9-333,319.7C4900.5-2532.9,4705.2-2529.1,4578.9-2573.1z M4904.3-2975c82.3-47.9,95.7-99.5,95.7-386.7c0-298.6-17.2-342.6-143.6-384.7c-57.4-19.1-78.5-17.2-137.8,13.4c-107.2,51.7-120.6,93.8-120.6,396.2v264.1l65.1,65.1C4737.8-2932.9,4816.2-2921.5,4904.3-2975z"/><path d="M6003-2580.7c-141.7-53.6-245-151.2-317.7-300.5l-63.2-128.2v-335c0-396.2,19.1-468.9,166.5-624c130.1-137.8,250.7-187.6,446-189.5c130.2,0,170.4,7.7,262.2,53.6c135.9,67,250.7,193.3,302.4,335c38.3,99.5,40.2,139.7,34.4,453.6c-5.7,331.1-7.6,348.4-57.4,442.1c-65.1,124.4-218.2,264.2-335,302.4C6320.7-2529.1,6123.6-2532.9,6003-2580.7z M6376.2-3007.6c47.9-49.8,49.8-59.3,55.5-315.8c7.7-308.2-11.5-369.4-124.4-415.3c-82.3-36.4-178-9.6-235.4,63.2c-34.5,44-38.3,76.6-38.3,329.2c0,296.7,9.6,327.3,105.3,382.8C6198.2-2929.1,6318.8-2952.1,6376.2-3007.6z"/><path d="M7476.8-2559.7c-95.7-30.6-239.3-135.9-308.2-225.9c-103.3-137.8-124.4-246.9-116.7-612.5c5.7-292.8,9.6-327.3,51.7-415.4c61.2-120.6,176.1-237.4,298.6-296.7c78.5-38.3,124.4-47.9,258.4-47.9c149.3,0,172.3,5.7,283.3,65.1c130.1,70.8,210.5,158.9,277.5,302.4c38.3,84.2,42.1,120.6,42.1,446c0,348.4,0,356-53.6,463.2c-59.3,118.7-160.8,222-285.2,285.2C7832.8-2548.2,7580.2-2527.1,7476.8-2559.7z M7769.7-2980.8c86.1-51.7,107.2-137.8,99.5-417.3c-7.7-223.9-9.6-233.5-63.2-289c-70.8-74.6-143.6-89.9-229.7-49.8c-103.3,49.8-126.3,120.6-126.3,396.2c0,201,5.7,245,38.3,298.6C7551.4-2940.6,7662.5-2915.7,7769.7-2980.8z"/><path d="M3763.5-3800c-105.3-84.2-112.9-208.6-19.1-302.4c90-90,181.8-90,271.8,0c88.1,88,90,189.5,9.6,277.5c-45.9,49.8-70.8,59.3-139.7,59.3C3836.2-3765.5,3786.5-3779,3763.5-3800z"/></g></g>
</svg>